<svg width="50" height="50" viewBox="0 0 50 50" fill="none" xmlns="http://www.w3.org/2000/svg">
<circle cx="25" cy="25" r="24" stroke="white" stroke-width="2"/>
<path d="M20.9863 7.95117L22.1582 7.96924L25.5176 8.0415L26.8262 8.07764L27.2559 8.0957L27.4121 8.11377L27.4316 8.18604L27.2949 8.38477L26.8652 8.96289L26.6309 9.25195L26.377 9.57715L26.2012 9.81201L25.9277 10.1553L25.752 10.3901L25.6934 10.5347L25.5762 12.1606L25.4395 13.6602L25.3418 15.0513L25.2832 15.9185L25.166 17.6167L25.1074 18.0864V18.1587L25.3418 17.96L25.5957 17.7251L25.7324 17.5806L25.9668 17.3276L26.1816 17.1108L26.3574 16.9121L26.6113 16.6592L26.748 16.5146L26.9824 16.2798L27.1582 16.0991L27.5879 15.6655L27.8027 15.4307L28.0371 15.1958L28.2129 14.9971L28.4277 14.7803L28.5645 14.6357L28.7793 14.4189L29.0137 14.166L29.1504 14.0215L29.3262 13.8228L29.541 13.5879L29.6973 13.4072L29.9121 13.1724L30.1074 12.9736L30.2832 12.7749L30.4785 12.5762L30.5957 12.4316L30.7715 12.2329L30.9863 11.998L31.123 11.8535L31.2988 11.6548L31.5137 11.4199L31.6699 11.2393L31.8848 11.0044L32.0605 10.7695L32.1582 10.4985L32.3535 9.45068L32.4707 8.85449L32.5879 8.11377L32.627 8.0415L32.7637 8.0957L32.959 8.2583L33.1152 8.38477L33.623 8.81836L33.8574 9.01709L33.9551 9.08936V9.12549L34.0332 9.16162L34.4238 9.52295L34.5801 9.64941L34.834 9.88428L34.9902 10.0107L35.2832 10.2817L35.4395 10.4082L35.5957 10.5527L35.752 10.6792L35.9082 10.8237L36.0645 10.9502L36.3379 11.2031L36.4941 11.3296L36.6699 11.5103L36.6895 11.5645L36.5918 11.6367L36.2793 11.7812L35.7129 12.0342L35.4004 12.1787L35.0488 12.3594L34.7168 12.5762L34.209 12.9375L33.9746 13.1182L33.6426 13.353L33.4082 13.5337L32.8613 13.9312L32.3535 14.2925L32.1387 14.4551L31.8652 14.6538L31.1035 15.1958L30.8496 15.3945L30.5957 15.5752L30.3027 15.792L30.0488 15.9727L29.8535 16.1172L29.5801 16.3159L29.3848 16.4785L29.1895 16.7495L28.9941 17.0386L28.4473 17.8335L28.2129 18.1768L27.9199 18.6104L27.7051 18.9175L27.5098 19.2065L27.373 19.4053L27.1387 19.7485L26.9238 20.0557L26.6895 20.3989L26.5137 20.6519L26.2988 20.959L26.0059 21.3926L25.8105 21.6636L25.5762 22.0068L25.3027 22.3862L25.1465 22.6392L25.1074 22.8198L25.127 22.9824L25.2832 26.3428L25.3027 26.8486L25.2246 26.957L25.2051 27.0835L25.2441 27.3545L25.3418 27.6074L25.4395 28.854L25.5176 29.4502L25.6543 29.9922L25.7715 30.3535L25.8105 30.4619L25.8496 30.8052L25.8691 31.4917L25.8887 33.1357L25.9082 33.7319V34.3643L25.8887 34.9424V36.478L25.9473 36.8755L26.123 37.3452L26.5918 38.4292L26.8652 38.9712L27.1777 39.5493L27.3535 39.9468L27.334 40.019L27.0215 40.1997L26.9043 40.29L26.6895 40.3262L26.2207 40.3623L26.084 40.4165L25.9277 40.4888L25.6152 40.5791L25.4395 40.6694L25.2832 40.7417L25.2051 40.7598H25.0684L24.9902 40.7056L24.9121 40.5249L24.8926 40.5068L21.123 40.4888L21.0449 40.4707L21.0645 40.3081L21.3379 39.7661L21.6699 39.0977L22.0215 38.3931L22.334 37.7788L22.5879 37.2729L22.7051 37.002L22.7441 36.8574V35.1953L22.7246 34.0571L22.6855 28.7817L22.6465 25.4575L22.6074 22.8921L22.5879 21.1035L22.4121 20.9229L22.0996 20.6338L21.9434 20.5073L21.416 20.0195L21.2598 19.8931L20.9277 19.5859L20.7715 19.4595L20.498 19.2065L20.3418 19.0801L20.0098 18.7729L19.8535 18.6465L19.3848 18.2129L19.2285 18.0864L18.8574 17.7432L18.7012 17.6167L18.2324 17.1831L18.0762 17.0566L17.5879 16.605L17.4316 16.4785L17.2363 16.2979L17.0801 16.1714L16.7676 15.8823L16.6113 15.7559L16.3184 15.4849L16.1621 15.3584L15.7324 14.9609L15.5762 14.8345L14.834 14.1479L14.6777 14.0215L14.2871 13.6602L14.1309 13.5337L13.2715 12.7388L13.0371 12.5762L12.7637 12.5942L11.8066 12.6484L11.3379 12.6665H10.6934L10.7129 12.54L10.9863 12.1968L11.1816 11.998L11.3184 11.8354L11.4941 11.6548L11.6699 11.4561L11.8262 11.2935L12.041 11.0405L12.2559 10.8057L12.6074 10.4082L12.7637 10.2275L12.9785 9.97461L13.2129 9.72168L13.4863 9.41455L13.7012 9.16162L13.916 8.92676L14.0918 8.70996L14.3262 8.45703L14.4238 8.34863L14.5215 8.3125L14.5801 8.49316L14.6777 9.32422L14.7754 9.86621L14.8535 10.1372L14.9707 10.354L15.2441 10.6792L15.791 11.3657L16.0254 11.6548L16.5723 12.3413L16.7871 12.5942L17.002 12.8291L17.2949 13.1182L17.4707 13.2988L17.5879 13.4072V13.4434H17.627L17.7637 13.5879L17.9395 13.7505L18.0762 13.895L18.2129 14.0215L18.3496 14.166L18.623 14.4189L18.7598 14.5635L18.8965 14.6899L19.0332 14.8345L19.6387 15.4307L19.8535 15.6475L19.9902 15.792L20.2832 16.0811L20.4199 16.2256L20.6543 16.4604L20.791 16.5869L20.9277 16.7314L21.2012 17.0024L21.377 17.1831L21.5918 17.3999L21.7285 17.5444L22.0801 17.8696L22.2168 18.0142L22.4316 18.249L22.6465 18.4297L22.627 17.4722L22.6074 15.9004L22.5879 11.9619L22.5488 11.6729L22.3926 11.2935L22.002 10.4263L21.709 9.79395L21.4746 9.25195L21.1426 8.4751L20.9863 8.0415V7.95117Z" fill="#FEFEFE"/>
</svg>
