<svg width="50" height="50" viewBox="0 0 50 50" fill="none" xmlns="http://www.w3.org/2000/svg">
<circle cx="25" cy="25" r="24" stroke="white" stroke-width="2"/>
<path d="M15.8152 7.78464H16.3587L18.8179 7.82234L20.8152 7.83491L21.5353 7.84748L21.6712 7.88518L21.7934 7.96059L21.9565 8.09884L22.0923 8.21195L22.2282 8.33763L22.3369 8.4256L22.5543 8.61412L22.663 8.7021L22.7853 8.81521L22.894 8.90318L23.057 9.04143L23.1657 9.12941L23.3423 9.28022L23.5326 9.4436L23.682 9.55672L23.913 9.7578L24.0489 9.87091L24.2119 10.0092L24.3206 10.0971L24.4972 10.248L24.5652 10.2982L24.6331 10.3611L24.8505 10.5496L24.9592 10.6376L25.3668 10.9895L25.4755 11.0774L25.6114 11.1905L25.7201 11.2785L25.9646 11.4419L26.1548 11.5424L26.5353 11.6933L27.2554 11.9949L27.663 12.1583L28.2065 12.3845L28.6141 12.5479L28.9402 12.6861L29.3478 12.8495L29.701 12.9878L30.1087 13.1637L30.5298 13.3271L30.7744 13.4276L31.0326 13.5408L31.3179 13.6413L31.413 13.6664L32.0108 13.679L33.2472 13.6916L34.0081 13.7041L34.144 13.7293L34.1576 13.767L34.1032 13.8675L33.9945 14.0058L33.8587 14.1817L33.7228 14.3451L33.5326 14.5839L33.3967 14.7598L33.2201 14.9735L33.0706 15.1494L32.894 15.3757L32.7717 15.5391L32.6358 15.7024L32.5951 15.7527H32.5679L32.5407 15.8155L32.5271 15.8407L32.5815 15.8533H32.5543L32.5407 15.891L32.6222 15.9915L32.7309 16.0795L33.1114 16.4314L33.2201 16.5194L33.7771 17.0346L33.8587 17.0975V17.1226L33.913 17.1477L34.2119 17.4242L34.2934 17.4871L34.3885 17.5876L34.5108 17.7007L34.6331 17.8641L34.6467 17.8893V17.9647L34.5788 18.0024L34.3206 18.0903L33.2337 18.4171L32.4728 18.6433L32.2554 18.7062L31.2771 18.9952L30.0679 19.3471L29.7282 19.4602L29.4972 19.5608L29.3614 19.6362L29.1032 19.787L28.913 19.9127L28.7092 20.0384L28.519 20.1515L28.2472 20.3274L27.7581 20.6291L27.5679 20.7547L27.2554 20.9433L26.875 21.1821L26.5081 21.4083L26.1956 21.6094L25.951 21.7602L25.6929 21.9236L25.2445 22.2001L24.9864 22.3634L24.7554 22.5143L24.5516 22.6399L24.1983 22.8662L23.9402 23.0295L23.4375 23.3437L23.1657 23.5197L22.9212 23.6579L22.8532 23.6956H22.826V23.7208L22.7989 23.7333L22.9076 23.8088L23.2065 23.9721L23.3967 24.0852L23.7635 24.2863L24.0353 24.4371L24.3478 24.6131L24.6059 24.7639L24.8369 24.8896L25.0543 25.0153L25.326 25.1661L25.6385 25.342L25.8423 25.4552L26.0733 25.5808L26.9565 26.071L27.269 26.2469L27.6358 26.448L27.9212 26.6114L28.2337 26.7748L28.5869 26.9759L28.8451 27.1141L30.3396 27.9436L30.7201 28.1573L30.9918 28.3081L31.1956 28.4338L31.3587 28.5217L31.5081 28.572L31.875 28.6223L32.5815 28.6851L34.1032 28.8611L34.9592 28.9616L35.0271 28.9867L35.0407 29.0244L34.9592 29.1501L34.7962 29.3261L34.6603 29.4895L34.4972 29.6654L34.375 29.7911L34.2527 29.9293L34.1304 30.055L34.0081 30.1933L33.8587 30.3566L33.6956 30.5326L33.5733 30.6583L33.451 30.7965L33.125 31.1484L33.0027 31.2741L32.9076 31.3746L32.7445 31.5506L32.5815 31.714L32.5543 31.7894L32.5815 31.8397L32.7989 31.9905L32.9891 32.1287L33.2065 32.2921L33.3967 32.4304L33.5326 32.5309L33.75 32.6943L33.9402 32.8325L34.1168 32.9708L34.2798 33.109L34.375 33.2096L34.3885 33.285L34.307 33.3352L34.0217 33.4358L33.4782 33.5866L33.0842 33.7123L32.4864 33.9008L32.038 34.0391L31.1277 34.3407L30.8831 34.4412L30.625 34.5669L30.0271 34.8434L29.7282 34.9942L29.076 35.2958L28.8179 35.4215L28.4646 35.5849L28.2065 35.7106L27.6087 35.9871L27.3505 36.1128L26.7255 36.4018L26.4945 36.5149L26.182 36.6532L25.8831 36.804L25.3125 37.0679L24.932 37.2564L24.4972 37.4575L24.1983 37.6083L23.6548 37.8597L23.5054 37.9351L23.125 38.1236L22.5543 38.3876L22.4592 38.4504L22.3913 38.6766L22.3369 38.8777L22.2146 39.2296L22.0923 39.5941L21.9972 39.8454L21.9157 39.9585L21.8885 39.9711L21.7119 39.9837L17.8804 39.946L16.7255 39.9334L16.2907 39.9208L16.1956 39.8957L16.182 39.8077L16.3451 39.2799L16.5081 38.7772L16.6983 38.1488L16.9157 37.4575L17.1331 36.7286L17.3369 36.1002L17.4728 35.5849L17.5407 35.2958L17.5679 35.0068V33.9511L17.5543 30.9222L17.5135 27.2398L17.5 19.3094L17.4864 15.4134L17.4728 13.6916L17.4592 12.3719L17.3777 12.108L17.2554 11.7938L17.1059 11.4293L16.8614 10.7632L16.7119 10.3862L16.4673 9.73267L16.3451 9.41847L16.1684 8.94089L16.0054 8.48844L15.8831 8.17424L15.8016 7.93545L15.7744 7.79721L15.8152 7.78464ZM20.788 10.5999L20.7472 10.6753L20.6657 11.0649L20.625 11.266L20.5027 11.9195L20.4212 12.3091L20.2989 12.9626L20.163 13.6162L20.0407 14.1566L20 14.32L19.9728 14.5462L19.9592 14.7724V15.6145L19.9864 18.8947L20.0135 20.1389L20.0407 21.8733L20.0543 21.9236L20.1087 21.911L20.2989 21.7979L20.4483 21.6848L20.6385 21.5591L20.9239 21.358L21.1684 21.1946L21.4673 21.0312L21.7934 20.8679L22.1059 20.717L22.9755 20.2772L23.1929 20.1766L23.4375 20.0509L23.75 19.9001L24.0489 19.7493L24.4021 19.5734L24.7146 19.4225L24.9592 19.2969L25.4891 19.0455L25.7337 18.9198L26.0733 18.7564L26.3587 18.6056L26.7391 18.4171L26.9972 18.2914L27.2962 18.1406L27.7173 17.9395L28.2472 17.6505L28.4375 17.5499L28.6956 17.3991L29.0489 17.2232L29.2255 17.1226L29.8777 16.7707L30.1766 16.6199L30.2309 16.5822L30.2173 16.5194L30.0815 16.4062L29.932 16.2931L29.7826 16.1674L29.6331 16.0543L29.4293 15.891L29.2391 15.7527L29.1168 15.6522L28.9809 15.5516L28.7771 15.3882L28.3967 15.0866L28.1929 14.9232L28.0027 14.7724L27.8532 14.6593L27.6494 14.4959L27.4592 14.3577L27.2826 14.2194L27.1467 14.1189L26.9157 13.9429L26.6847 13.7795L26.4538 13.6287L26.1413 13.4276L25.8152 13.2266L25.5842 13.0757L25.3804 12.9501L25.0815 12.7615L24.6059 12.4599L24.2934 12.2588L24.1032 12.1457L23.8722 11.9949L23.6005 11.8189L23.3423 11.6556L22.8532 11.3539L22.5271 11.1654L22.3641 11.09L21.9293 10.9392L21.4402 10.7884L20.9918 10.6627L20.788 10.5999ZM20.0543 25.2792L20.0679 26.4355L20.0951 29.9922L20.1222 32.5058L20.1358 32.8702L20.1766 33.1467L20.2445 33.4107L20.4212 33.9762L20.5027 34.2527L20.6929 34.8057L20.9103 35.4969L21.0597 35.9117L21.1277 36.0499L21.182 36.1002L21.2635 36.1128L22.3369 36.1002L22.5407 36.0248L22.8125 35.874L23.0163 35.7483L23.2608 35.61L23.5869 35.4215L23.9402 35.2204L24.076 35.1325L24.3478 34.9816L24.6739 34.7931L24.9048 34.6549L25.2445 34.4664L25.4347 34.3532L25.7608 34.1647L26.019 34.0139L26.6576 33.6494L27.1195 33.3729L27.3777 33.2221L27.6494 33.0588L27.9755 32.8702L28.2065 32.732L28.5326 32.5435L28.7771 32.4052L29.0489 32.2418L29.2663 32.091L29.4021 31.9779L29.6195 31.7768L29.7146 31.6763L29.8913 31.5003V31.4752H29.9184V31.4501H29.9456V31.4249H29.9728L30.0679 31.3244L30.2717 31.1233L30.2853 31.0856L30.0679 30.9348L29.9184 30.8468L29.701 30.7085L29.3885 30.5075L29.2255 30.4069L29.0353 30.2812L28.8315 30.1556L28.5597 29.9796L27.9755 29.6151L27.7445 29.4643L27.5407 29.3386L27.3233 29.2004L27.1875 29.1124L26.8614 28.9113L26.6304 28.7605L26.3587 28.5971L26.0326 28.4086L25.6657 28.2201L25.4347 28.0944L25.1494 27.9436L24.7962 27.7551L24.4837 27.5917L23.8315 27.2398L23.5326 27.0764L23.1521 26.8753L22.7989 26.6994L22.4864 26.536L22.1059 26.3475L21.9021 26.2344L21.5896 26.071L21.2907 25.9202L21.0733 25.8071L20.6793 25.606L20.0951 25.2918L20.0543 25.2792Z" fill="white"/>
</svg>
