<svg width="50" height="50" viewBox="0 0 50 50" fill="none" xmlns="http://www.w3.org/2000/svg">
<circle cx="25" cy="25" r="24" stroke="white" stroke-width="2"/>
<path d="M34.6484 9.34229H35.4688L35.5469 9.36035L35.5078 9.59521L35.3906 10.1372L35.1367 11.1128L34.9023 12.0161L34.707 12.7026L34.6094 13.1543L34.5508 13.7324L34.4141 15.8823L34.3359 17.1831L34.2188 19.6401L34.1406 21.3745L34.0039 24.0122L33.9648 24.7529L33.9062 25.3311L33.8867 25.4395V25.8911L33.9453 26.3247L34.1797 29.0708L34.2773 30.48L34.5703 33.9668L34.6289 34.8159L34.6875 35.7373L34.7656 36.4058L34.8828 37.0562L35.0195 37.5078L35.2539 38.1582L35.5664 39.0435L35.7227 39.4229L35.8008 39.73V39.7842L35.625 39.8022L33.7695 39.6938L31.9922 39.6216L30.8594 39.5854L30.7422 39.5674L30.7617 39.459L30.918 39.1157L31.1523 38.7002L31.2695 38.5015L31.4258 38.1943L31.4648 38.0679L31.4453 37.9233L31.2305 37.5078L30.9961 37.1284L30.6836 36.6045L30.4297 36.1709L30.1758 35.7554L29.9414 35.3398L29.707 34.9424L29.4141 34.4365L29.1406 33.9668L28.9453 33.6235L28.6914 33.1899L28.457 32.7925L28.125 32.2144L27.832 31.7085L27.5781 31.2568L27.3438 30.8594L27.0117 30.2812L26.7188 29.7754L26.5234 29.4321L26.2695 28.9985L26.0742 28.6553L25.7617 28.1313L25.6055 27.8423L25.3711 27.4448L25.0781 26.9209L24.8828 26.5776L24.7852 26.415H24.7461L24.6875 26.5776L24.5898 26.8306L24.4141 27.21L24.1406 27.8423L23.8086 28.583L23.4961 29.2876L23.1836 29.9741L23.0273 30.3354L22.7734 30.8774L22.6367 31.2026L22.3242 31.8892L22.0312 32.5576L21.6992 33.2983L21.3867 34.0029L21.0938 34.6533L20.8594 35.1772L20.5664 35.8276L20.2344 36.5684L19.9414 37.2188L19.6875 37.7607L19.5898 37.9775V38.3389L19.6875 38.8809L19.7656 39.5493V39.7661L19.7461 39.7842L19.5898 39.8022L18.3789 39.8384L15.1172 39.9106H14.8242L14.707 39.8745L14.8828 39.5312L15.3906 38.5195L15.5664 38.1582L15.8008 37.6885L15.9375 37.3633L15.9961 37.1465L16.0156 37.02L16.0547 36.1167L16.1133 34.021L16.1719 31.8892L16.2109 30.2993L16.3281 26.4331V24.6265L16.1719 22.2778L15.9766 19.604L15.8008 17.1108L15.7227 15.8823L15.6445 14.979L15.5273 13.6602L15.4688 12.8652L15.4102 12.4316L15.293 11.98L14.8633 10.5889L14.668 9.92041L14.5312 9.45068V9.36035L16.3281 9.37842L17.9102 9.41455L18.8672 9.45068L19.3555 9.48682L19.3945 9.57715L19.4922 10.2095L19.5898 10.9321L19.668 11.2935L19.8047 11.6548L20.0781 12.251L20.3125 12.7568L20.5078 13.1724L20.7812 13.7505L21.1914 14.6357L21.4258 15.1235L22.1875 16.7495L22.4219 17.2554L23.0469 18.5562L23.3203 19.1343L23.6133 19.7666L23.8672 20.2905L24.1211 20.8325L24.3359 21.3022L24.5898 21.8442L24.7852 22.2959L24.8633 22.4043H24.9023L25.0977 22.0972L25.332 21.6997L25.5859 21.2842L25.7227 21.0854L25.8594 20.8325L26.0938 20.4531L26.3867 19.9473L26.6016 19.604L26.875 19.1523L27.1289 18.7368L27.3633 18.3394L27.6367 17.9058L27.8711 17.5083L28.1055 17.1289L28.3594 16.6953L28.4961 16.4785L28.75 15.9365L28.9062 15.5752L29.1602 14.9429L29.4531 14.2202L29.707 13.606L30.4102 11.8716L30.6641 11.2393L30.8203 10.896L30.8398 10.7153L30.7031 10.4624L30.4688 10.1191L30.2148 9.75781L30.0391 9.48682L30.0195 9.41455L30.0391 9.39648L31.1133 9.37842L34.6484 9.34229ZM31.6992 16.5688L31.5234 16.7134L31.3867 16.876L31.2109 17.0566L31.0742 17.2012L30.8398 17.418L30.7031 17.5625L30.4492 17.8154L30.3125 17.96L30.1367 18.1406L30 18.2852L29.7461 18.5381L29.6094 18.7368L29.0625 19.7124L28.7695 20.2183L28.5352 20.6519L28.3008 21.0493L28.1055 21.4106L27.8711 21.8081L27.5586 22.3682L27.3633 22.7114L27.1094 23.145L26.7578 23.7773L26.5625 24.1206L26.3281 24.5L26.2891 24.5903L26.3672 24.7349L26.5625 25.0059L26.9336 25.584L27.2656 26.0898L27.5 26.4512L27.7539 26.8306L28.0078 27.228L28.1836 27.481L28.3789 27.7881L28.5742 28.0771L28.8477 28.4927L29.1797 28.9985L29.4336 29.3779L29.7656 29.8838L30.0781 30.3535L30.3125 30.7148L30.5664 31.0942L30.7812 31.4194L30.9961 31.7085L31.2305 31.9614L31.4062 32.1421L31.543 32.2866L31.7188 32.4673L31.875 32.6118H31.8945L31.8555 30.5884L31.8359 26.686L31.7969 24.3555L31.7773 22.043L31.7578 20.4531L31.7188 16.5688H31.6992ZM18.7305 17.147L18.6914 17.2554L18.5156 18.6826L18.3594 20.1821L18.2812 20.7964L18.1641 22.0249L18.1055 22.4404L18.0859 22.6753L18.0664 23.1631V27.3003L18.1055 30.6064L18.125 32.8286L18.3008 32.7202L18.5547 32.4854L18.7109 32.3589L19.2969 31.853L19.5117 31.6904L19.8242 31.4194L20.0391 31.2568L20.1758 31.1304L20.4102 30.7148L20.6445 30.2451L21.2305 29.0527L21.5039 28.4927L21.7578 27.9868L21.9922 27.499L22.168 27.1558L22.3242 26.8306L22.5781 26.3247L22.7148 26.0356L22.9492 25.584L23.1445 25.1323L23.3008 24.8433L23.3789 24.7349L23.3594 24.6445L23.0664 24.1929L22.8125 23.7773L22.5391 23.3438L22.3438 23.0186L22.1094 22.6392L21.8164 22.1694L21.543 21.7178L21.3086 21.3384L21.0156 20.8506L20.7422 20.3989L20.5078 20.0195L20.2539 19.5859L19.9805 19.1523L19.6875 18.6465L19.4922 18.3394L19.1797 17.8154L18.9453 17.418L18.8477 17.2373L18.7695 17.147H18.7305Z" fill="#FEFEFE"/>
</svg>
