<svg width="50" height="50" viewBox="0 0 50 50" fill="none" xmlns="http://www.w3.org/2000/svg">
<circle cx="25" cy="25" r="24" stroke="white" stroke-width="2"/>
<path d="M29.6777 7.66211L29.7559 7.68018L30.0879 7.89697L30.498 8.13184L30.9863 8.4209L31.8262 8.94482L32.2363 9.19775L33.0762 9.72168L34.541 10.625L34.5801 10.6611L34.5605 10.7334L34.3848 10.896L34.2285 11.0225L33.9355 11.2935L33.7793 11.4199L33.3105 11.8174L33.1543 11.9438L32.9199 12.1426L32.7246 12.3052L32.4512 12.522L32.1973 12.7388L32.041 12.8652L31.7871 13.082L31.5723 13.2446L31.377 13.4253L31.1621 13.5879L30.9863 13.7686L30.459 14.7441L30.1074 15.3765L29.2676 16.9302L28.8184 17.7432L27.8027 19.6221L27.5098 20.146L26.3965 22.2056L26.1816 22.5488L25.9473 22.9644L25.752 23.3076L25.4785 23.8315L25.3223 24.1206V24.229L25.6152 24.7349L25.8887 25.1685L26.123 25.5479L26.3379 25.8911L26.5723 26.2705L26.8652 26.7402L27.1191 27.1377L27.3535 27.481L27.6074 27.8604L27.8418 28.2397L28.1348 28.7095L28.4082 29.1431L28.584 29.4321L28.8184 29.8115L29.1113 30.2812L29.2871 30.5703L29.5996 31.0762L29.834 31.4194L30.0488 31.7085L30.3223 32.0698L30.5957 32.4492L30.8887 32.8467L31.1621 33.208L31.377 33.4971L31.6309 33.8403L31.8457 34.1294L32.0801 34.4365L32.334 34.7798L32.5293 35.0327L32.7441 35.2856L33.0176 35.5928L33.2715 35.8818L33.7012 36.3877L33.8574 36.5684L34.1699 36.9478L34.4238 37.2729L34.5215 37.3994L34.541 37.5259L34.4434 37.5981L33.9941 37.8511L33.584 38.0859L33.1152 38.3569L32.7441 38.5737L31.7285 39.1519L31.2598 39.4229L30.752 39.7119L30.4395 39.8926L30.166 40.0371L30.0293 40.0732L29.9707 39.9287L29.8145 39.1338L29.6191 38.0317L29.5215 37.4897L29.4629 37.0562L29.3457 36.731L29.1895 36.4058L28.8379 35.7554L28.6035 35.3579L28.3301 34.8701L28.0957 34.4546L27.9004 34.0752L27.7441 33.7861L27.4902 33.2803L27.2168 32.7563L27.002 32.3228L26.7285 31.7988L26.084 30.5522L25.7129 29.8477L25.459 29.3418L25.127 28.6914L24.7949 28.0229L24.4824 27.3726L24.4043 27.1558L24.1699 26.7764L23.9746 26.397L23.9551 26.3428H23.916L23.8574 26.5234L23.5449 27.3545L23.3105 27.9326L23.0371 28.5469L22.8223 29.0527L22.6074 29.5405L22.334 30.1548L22.0996 30.6968L21.8262 31.311L21.5332 31.9614L21.2598 32.5757L20.752 33.75L20.4395 34.6714L20.166 35.5205L19.834 36.5322L19.4043 37.8691L19.0723 38.8628L18.7793 39.7119L18.623 40.2178L18.584 40.2539L18.2324 40.019L17.9785 39.8745L17.6465 39.6758L17.3535 39.4951L16.8066 39.1519L16.416 38.8989L16.0449 38.6641L15.7129 38.4473L15.4785 38.3027L15.0879 38.0498L14.4629 37.6704L14.209 37.5259L14.1699 37.4897L14.1895 37.3633L14.3848 37.0923L14.6387 36.749L14.834 36.5142L15.0879 36.207L15.2832 35.9722L15.5176 35.7192L15.6738 35.5747L15.8301 35.394L16.0449 35.1592L16.3965 34.7617L16.5918 34.563L16.7285 34.4185L16.9434 34.2017L17.1191 34.0029L17.2949 33.8223L17.4902 33.5874L17.7441 33.2983L17.9395 33.0454L18.1543 32.6479L18.3496 32.1782L18.6035 31.6543L18.7402 31.3652L19.0723 30.6426L19.3066 30.1367L19.5801 29.5586L19.9316 28.7998L20.1465 28.3481L20.6543 27.3003L20.9473 26.7583L21.2012 26.2163L21.3184 25.9814L21.5332 25.5117L21.7676 25.0239L22.041 24.4277L22.1777 24.1567V24.0303L22.0215 23.7412L21.8262 23.416L21.4746 22.7837L21.2793 22.4404L21.0059 21.9526L20.8105 21.6094L20.5762 21.1938L20.2246 20.5615L20.0293 20.2183L19.6777 19.604L19.3457 19.0078L19.1113 18.6104L18.8574 18.1406L18.623 17.7432L18.3105 17.1831L18.1152 16.8398L17.7637 16.2256L17.5098 15.7739L17.3145 15.4307L17.0215 14.9248L16.6504 14.2563L16.416 13.8589L16.1816 13.4253L15.9863 13.082L15.752 12.6665L15.5566 12.3594L15.4004 12.1606L15.0098 11.7993L14.8535 11.6729L14.5801 11.4199L14.4238 11.2935L14.0137 10.9141L13.9746 10.8599L13.9941 10.7695L14.1699 10.625L14.5996 10.3901L14.8535 10.2095L15.6348 9.70361L15.8691 9.55908L16.2012 9.34229L16.5918 9.08936L17.2949 8.65576L17.627 8.43896L17.998 8.2041L18.291 8.00537L18.3496 8.02344L18.4277 8.56543L18.5645 9.25195L18.7402 10.4082L18.8184 10.7695L18.9551 11.1128L19.4238 12.1245L19.7168 12.7388L20.0098 13.3892L20.3809 14.2021L20.7324 14.9609L21.0254 15.5752L21.2402 16.0449L21.4941 16.5869L21.6895 17.0205L22.041 17.7793L22.3535 18.4658L22.8027 19.4414L22.998 19.8569L23.1152 20.1279L23.3691 20.6519L23.4863 20.9409L23.6426 21.2119L23.7012 21.2842H23.7402L23.9746 20.8867L24.1309 20.5977L24.4043 20.1279L24.5996 19.7847L24.8535 19.3511L25.3809 18.3755L25.5762 18.0322L25.8496 17.5625L26.0449 17.2192L26.2793 16.8037L26.5137 16.4062L26.8262 15.8643L27.0605 15.4668L27.334 14.9971L27.627 14.4912L27.9004 14.0034L28.0957 13.6602L28.2129 13.4253L28.3301 13.1001L28.5059 12.3594L28.916 10.6431L29.1309 9.79395L29.3066 9.07129L29.4629 8.5293L29.5996 7.78857L29.6582 7.68018L29.6777 7.66211Z" fill="#FEFEFE"/>
</svg>
