<svg width="50" height="50" viewBox="0 0 50 50" fill="none" xmlns="http://www.w3.org/2000/svg">
<circle cx="25" cy="25" r="24" stroke="white" stroke-width="2"/>
<path d="M27.6953 7.65039L27.793 7.66846L27.9883 7.83105L28.2422 8.06592L28.3789 8.21045L28.6328 8.46338L28.8086 8.66211L28.9648 8.80664L29.1406 9.00537L29.3945 9.2583L29.5703 9.45703L29.7461 9.6377L29.9219 9.83643L30.1758 10.1074L30.3125 10.252L30.4883 10.4326L30.625 10.5771L30.8984 10.8481L31.1523 11.1011L31.2891 11.2456L31.4844 11.4624L31.582 11.5889L31.6211 11.7153L31.4062 11.7515L30.8398 11.8057L30.3711 11.896L29.9609 12.0225L29.3945 12.2754L29.1602 12.4199L28.9453 12.5825L28.7109 12.7812L28.5742 12.9258L28.3398 13.1426L28.2031 13.2871L27.8906 13.5942L27.4219 14.1001L27.2266 14.2988L27.0898 14.4434L26.8359 14.7144L26.543 15.0034L26.1133 15.437L25.9375 15.6177L25.7227 15.8345L25.5859 15.979L25.3516 16.2139L25.2148 16.3584L25.0781 16.4849L24.9414 16.6294L24.7266 16.8462L24.4922 17.0811L24.3555 17.2256L24.2188 17.3521L24.082 17.4966L23.9453 17.623L23.8086 17.7676L23.5547 18.0205L23.418 18.165L23.1445 18.436L22.9688 18.6167L22.5391 19.0503L22.3633 19.231L22.2266 19.3755L21.7578 19.8452L21.543 20.062L21.3672 20.2427L21.0938 20.5137L20.8789 20.7305L20.625 20.9834L20.4883 21.1279L20.2148 21.3989L20.0391 21.5796L19.7656 21.8506L19.6289 21.9951L19.4141 22.2119L18.8281 22.79L18.6914 22.9346L18.457 23.1694L18.2812 23.3501L18.1445 23.4946L17.8906 23.7476L17.7539 23.8921L17.5781 24.0728L17.5391 24.145L17.6758 24.3076L17.8516 24.5063L18.0273 24.687L18.2031 24.8857L18.3984 25.0845L18.5742 25.2832L18.7695 25.4819L18.9453 25.6807L19.082 25.8071L19.2578 26.0059L19.4531 26.1865L19.5898 26.3311L19.8242 26.5659L19.9609 26.7104L20.4297 27.2163L20.6836 27.4873L20.918 27.7222L21.0547 27.8667L21.1914 27.9932L21.3281 28.1377L21.4648 28.2642L21.6016 28.4087L21.7773 28.5894L21.9727 28.7881L22.1484 28.9868L22.4023 29.2397L22.5781 29.4385L22.7148 29.5649L22.8906 29.7637L23.0273 29.8901L23.1641 30.0347L23.6719 30.5767L23.8477 30.7754L24.1211 31.0464L24.3359 31.2451L24.4727 31.3896L24.707 31.6245L24.8828 31.8232L25.1367 32.0762L25.3125 32.2749L25.4688 32.4194L25.6445 32.6182L25.8008 32.7627L25.9766 32.9614L26.2305 33.2144L26.4062 33.4131L26.6406 33.6479L26.8164 33.8467L26.9922 34.0273L27.168 34.2261L27.4805 34.5332L27.8711 34.8945L28.2031 35.1294L28.4766 35.3101L28.9648 35.5991L29.3945 35.8159L29.9219 36.0508L30.2734 36.1592L30.7031 36.2495L30.9375 36.2856L31.6992 36.3218L31.8555 36.376L31.8359 36.4663L31.6797 36.647L31.5039 36.8276L31.3477 37.0083L31.1328 37.2432L30.9961 37.4058L30.7422 37.6948L30.5273 37.9297L30.3516 38.1284L30.1953 38.291L30.0195 38.4897L29.6289 38.9414L29.375 39.2124L29.1992 39.3931L29.043 39.5737L28.7891 39.8628L28.5742 40.0977L28.3984 40.2964L28.1055 40.5854L27.9688 40.73L27.8906 40.7661L27.793 40.5132L27.6562 40.0796L27.5195 39.4834L27.4023 39.0498L27.2656 38.5078L27.168 38.1104L27.1094 37.8936L27.0312 37.749L26.8945 37.5864L26.7188 37.4058L26.25 36.8999L26.0547 36.7012L25.918 36.5566L25.7031 36.3398L25.5664 36.1953L25.2734 35.9062L25.1367 35.7617L24.8633 35.4907L24.6484 35.2739L24.4727 35.0752L24.2773 34.8765L24.1016 34.6777L23.8672 34.4248L23.6719 34.2261L23.4961 34.0273L23.3398 33.8828L23.2031 33.7383L22.9688 33.4854L22.7344 33.2505L22.5586 33.0518L22.4219 32.9253L22.2852 32.7808L22.0508 32.5459L21.9141 32.4014L21.7188 32.2026L21.582 32.0581L21.3672 31.8413L21.2305 31.6968L20.9961 31.4438L20.7422 31.1909L20.6055 31.0464L20.3711 30.8115L20.1953 30.6309L19.9805 30.4141L19.8438 30.2695L19.668 30.0889L19.5312 29.9443L19.0625 29.4385L18.8281 29.2036L18.6914 29.0591L18.4766 28.8423L18.3398 28.6978L18.1641 28.5171L18.0273 28.3726L17.8125 28.1558L17.6367 27.957L17.3633 27.686L17.1875 27.4873L17.0508 27.3608L16.9141 27.2163L16.6797 26.9814L16.543 26.8369L16.3281 26.6201L16.1523 26.4214L15.9961 26.2769L15.8594 26.1323L15.7031 25.9878L15.4297 25.8071L15.0977 25.6626L14.5898 25.5L14.4141 25.4639L13.8867 25.4097L13.6133 25.3916H13.0078L13.0273 25.2651L13.1641 25.1025L13.4961 24.7954L13.6328 24.6509L14.2383 24.0908L14.2578 24.0186L13.9648 23.856L13.6523 23.6934L13.3789 23.5308L13.1055 23.4043V23.3501L13.3008 23.2598L13.8477 23.061L14.1602 22.9346L14.5898 22.6997L14.8828 22.519L15.1172 22.3564L15.3711 22.1758L15.625 21.9771L15.7812 21.8506L15.9766 21.688L16.1523 21.5254L16.25 21.417H16.2891L16.3281 21.3447L16.543 21.146L16.6797 21.0015L16.9727 20.7124L17.1094 20.5679L17.3438 20.3511L17.4805 20.2065L17.7148 19.9897L17.8516 19.8452L18.1445 19.5562L18.3789 19.3394L18.3984 19.3032H18.4375L18.4766 19.231L18.9844 18.7612L19.1211 18.6167L19.4531 18.3096L19.5508 18.2012H19.5898L19.6289 18.1289L20.0586 17.7314L20.1953 17.5869L20.4883 17.3159L20.625 17.1714L20.8789 16.9365L21.0156 16.792L21.3281 16.5029L21.4648 16.3584L21.6406 16.1958L21.7773 16.0513L22.1289 15.7261L22.1484 15.6899H22.1875L22.2266 15.6177L22.7539 15.1299L22.8516 15.0215L23.3789 14.5337L23.5156 14.3892L23.6914 14.2266L23.9062 13.9736L24.4141 13.2871L24.6094 13.0161L24.8828 12.6548L25.0586 12.4019L25.2734 12.1128L25.4688 11.8418L25.7812 11.4263L26.0742 11.0107L26.3867 10.5771L26.6211 10.27L26.8164 9.99902L27.0508 9.65576L27.1875 9.4751L27.3438 9.18604L27.5391 8.64404L27.5977 8.37305L27.6758 7.72266L27.6953 7.65039Z" fill="#FEFEFE"/>
<path d="M8.04688 43.8555L8.125 43.8916L8.22266 43.9819V44H8.10547L8.04688 43.9458V43.8555Z" fill="#FEFEFE"/>
</svg>
