<svg width="50" height="50" viewBox="0 0 50 50" fill="none" xmlns="http://www.w3.org/2000/svg">
<circle cx="25" cy="25" r="24" stroke="white" stroke-width="2"/>
<path d="M22.5488 6.74072L22.6855 6.75879L22.998 6.90332L23.3496 7.08398L23.8379 7.33691L24.2871 7.57178L24.7559 7.82471L25.3223 8.13184L25.6543 8.3125L25.9473 8.4751L26.416 8.72803L26.8457 8.96289L27.2559 9.17969L27.5293 9.36035L27.5879 9.43262L27.5488 9.52295L27.4121 9.66748L27.1777 9.92041L26.9629 10.1372L26.8262 10.2817L26.5332 10.5708L26.2988 10.8057L26.0059 11.0947L25.8691 11.2212L25.7324 11.3657L25.459 11.6367L25.2832 11.8174L25.0684 12.0161L24.9316 12.1606L24.6191 12.4678L24.3848 12.6846L24.248 12.8291L23.9551 13.1182L23.8184 13.2627L23.584 13.4976L23.4473 13.6421L23.2715 13.8228L23.0957 13.9854L22.8613 14.3828L22.5488 14.9609L22.334 15.3765L22.041 15.9727L21.7676 16.4966L21.6309 16.7856L21.3379 17.3457L21.123 17.7612L20.791 18.4116L20.5371 18.9175L20.2441 19.4595L19.9902 19.9653L19.5801 20.7422L19.3262 21.248L19.0137 21.8623L18.8184 22.2598L18.7207 22.4946L20.2246 22.4766L23.2129 22.4043L24.248 22.3862L25.7715 22.3682L31.6113 22.314L32.2168 22.2959L32.4707 22.2598L32.9199 22.061L34.9512 21.1216H35.0488L35.0684 21.1577L35.0488 22.4224L35.0098 23.9399L34.9707 25.2227L34.9512 26.144L34.9121 26.2524L34.7949 26.397H34.7559V26.4331L34.6973 26.4873H34.6582L34.6191 26.5596L34.2676 26.8848L34.1113 27.0112L33.584 27.499H33.5449V27.5352L33.3887 27.6616L32.8809 28.1313L32.7246 28.2578L32.2754 28.6733L32.1191 28.7998L31.9629 28.9443L31.7871 29.2153L31.5527 29.6309L31.3965 29.9199L31.1426 30.3716L30.9863 30.6606L30.6934 31.1665L30.5371 31.4556L30.127 32.1963L29.7559 32.8828L29.5605 33.2261L29.2285 33.8223L29.0723 34.0933L28.8965 34.4365L28.7012 34.7798L28.4668 35.2134L28.2715 35.5566L27.9395 36.1528L27.7441 36.4961L27.4707 36.9839L27.3145 37.2729L27.1387 37.5801L26.9434 37.8872L26.8652 38.1221L26.8457 38.3389L26.7676 40.5972L26.748 41.1572L26.6895 41.1753L26.4746 41.0488L26.0645 40.7959L25.3223 40.3623L24.8535 40.0913L24.0527 39.6216L23.0762 39.0435L22.7051 38.8267L22.4707 38.6821L22.0996 38.4292L21.9824 38.3208L22.002 38.2485L22.2559 37.9775L22.4316 37.7969L22.7051 37.5259L22.8418 37.3813H22.8809L22.9199 37.3091L24.1895 36.1348L24.3262 35.9902L24.502 35.7734L24.7754 35.4121L24.9121 35.2134L25.8105 33.9668L26.377 33.1899L27.002 32.3228L27.1387 32.1421L27.4512 31.6543L27.5879 31.3833L27.8027 30.8774L27.9785 30.5161L28.1934 30.0103L28.7793 28.7095L29.0137 28.1855L29.3652 27.3906L29.5215 27.0474L29.7949 26.415L30.0879 25.7646L30.2441 25.4395L30.3418 25.2227H29.8145L27.4316 25.2588L23.5645 25.2769L23.3691 25.313L23.2715 25.4575L23.252 25.4756L23.0957 25.4575L22.998 25.3853L22.8223 25.3311L22.6074 25.3491L22.5293 25.3311L21.9629 25.313L19.0137 25.3311L18.3887 25.3491L18.0957 25.3672L17.7637 25.4937L16.5137 26.0356L15.2832 26.5596L14.541 26.8848L14.1895 27.0293L14.1113 27.0474L14.0723 26.7402L14.0137 23.9219L13.9941 21.6997V21.248L14.0137 21.1216L14.209 21.0132L14.873 20.7964L15.791 20.5073L16.4355 20.2905L16.6113 20.1821L16.8262 19.9111L16.9824 19.6943L17.1191 19.4956L17.2949 19.2427L17.5488 18.8994L18.291 17.8696L18.5449 17.5083L19.1309 16.6953L19.3457 16.3882L19.6387 15.9727L19.9902 15.4849L20.2832 15.0513L20.498 14.7261L20.6738 14.437L20.8691 13.9673L21.1426 13.2627L21.4941 12.3052L21.7676 11.5645L21.9824 11.0225L22.2949 10.1733L22.4707 9.61328L22.5293 9.28809V6.75879L22.5488 6.74072ZM22.8027 24.8071L22.5293 24.8433L22.4316 24.8975V25.0059L22.4902 25.0601L22.5488 25.0781H22.7637L22.8613 24.9878L22.9199 24.8613V24.8071H22.8027Z" fill="#FEFEFE"/>
</svg>
