<svg width="40" height="37" viewBox="0 0 40 37" fill="none" xmlns="http://www.w3.org/2000/svg">
<path d="M13.1348 3.45068H18.0566L18.2324 3.50488L18.4473 3.64941L18.7402 3.90234L18.9551 4.06494L19.1699 4.24561L19.3848 4.4082L19.5801 4.55273L19.8926 4.7876L20.1465 4.96826L20.4199 5.16699L21.1621 5.67285L21.5137 5.90771L21.9043 6.16064L22.4512 6.50391L22.7637 6.70264L23.1934 6.95557L23.4863 7.13623L23.916 7.37109L24.1699 7.51562L24.5996 7.75049L25.1074 8.02148L25.5566 8.25635L26.0645 8.50928L26.4941 8.72607L27.041 8.979L27.4121 9.15967L27.666 9.25L27.8223 9.28613L29.4824 9.32227L29.7559 9.34033L29.7754 9.4126L29.6191 9.59326L29.3848 9.82812L29.248 9.97266L29.1113 10.0991L28.9746 10.2437L28.7012 10.4966L28.4277 10.7856L28.4082 10.876L28.6035 11.1289L28.8574 11.418L29.0723 11.6528L29.248 11.8516L29.4629 12.0864L29.7168 12.3755L29.9316 12.6284L30.166 12.8813L30.4004 13.1523L30.6348 13.4595L30.6934 13.5679V13.6221L30.5176 13.6401L29.5996 13.6582L28.3887 13.7124L28.0371 13.7485L27.7832 13.8389L27.3145 14.0376L25.0098 14.9771L24.5996 15.1396L24.1113 15.3384L23.7402 15.4829L23.0371 15.79L22.8027 15.8984L22.5293 16.0791L22.2168 16.2959L21.2793 17.0005L21.1035 17.127L20.8496 17.3076L20.6348 17.4702L20.3613 17.6689L20.0684 17.8857L19.7363 18.1206L19.5801 18.2471L19.248 18.4819L19.0527 18.6265L18.7207 18.8794L18.5059 19.042L18.252 19.2227L17.9004 19.4756L17.6465 19.6743L17.4512 19.8188L17.041 20.1079L16.6895 20.3428L16.6113 20.397L16.5918 20.4512V28.6714L16.6309 29.6108L16.6895 30.2432L16.8066 30.9478L16.9434 31.6704L17.1582 32.5557L17.4121 33.3325L17.6855 34.0732L17.8613 34.4707L18.1543 35.0488L18.252 35.3018V35.3379L18.2129 35.356H16.2598L13.1152 35.3379L12.5684 35.3198L12.5293 35.3018L12.5488 35.1753L12.7441 34.6694L13.0371 33.8384L13.291 32.9351L13.4863 32.1582L13.7207 30.8213L13.8574 29.8096L13.9355 29.0327L13.9551 28.5991V25.582L13.9355 23.7573L13.916 22.4385L13.8965 18.3193L13.877 15.7358L13.8379 12.231L13.7988 11.2373L13.5645 9.70166L13.4082 8.81641L13.1738 7.69629L13.0176 6.95557L12.7637 6.01611L12.5684 5.25732L12.373 4.64307L12.1582 3.90234L12.002 3.52295L12.0215 3.46875L13.1348 3.45068ZM16.9629 7.1001L16.7871 7.49756L16.6309 7.80469L16.416 8.25635L16.2402 8.59961L16.2012 8.72607V10.5869L16.3379 13.9292L16.3965 15.6455L16.4355 16.9282L16.748 16.7837L17.1777 16.5669L17.627 16.3501L18.0762 16.1152L18.4277 15.9346L18.8184 15.7178L19.248 15.4829L19.6973 15.23L20.498 14.7603L21.4941 14.146L21.8848 13.8931L22.1191 13.7485L22.4902 13.4956L22.8027 13.2788L23.1738 13.0259L23.4863 12.791L23.7598 12.5923L24.0723 12.3574L24.2871 12.1948L24.5605 11.978L24.873 11.7432L25.0879 11.5986L24.9707 11.4541L24.6777 11.165L24.1504 10.6772L23.9355 10.5146L23.7598 10.4243L23.3105 10.2075L22.8809 9.99072L22.5684 9.84619L21.9238 9.53906L21.4941 9.34033L21.1621 9.17773L20.8496 9.0332L20.4785 8.85254L19.7168 8.49121L19.2871 8.27441L18.3691 7.80469L17.8223 7.53369L17.3145 7.28076L16.9824 7.1001H16.9629Z" fill="#FEFEFE"/>
</svg>
